<?xml version="1.0" encoding="UTF-8" standalone="no"?><!-- Generator: Gravit.io --><svg xmlns="http://www.w3.org/2000/svg" xmlns:xlink="http://www.w3.org/1999/xlink" style="isolation:isolate" viewBox="0 0 41 41" width="41pt" height="41pt"><g opacity="0.8"><path d=" M 0.01 20.5 C 0.01 9.186 9.196 0 20.51 0 C 31.824 0 41.01 9.186 41.01 20.5 C 41.01 31.814 31.824 41 20.51 41 C 9.196 41 0.01 31.814 0.01 20.5 Z  M 1.01 20.5 C 1.01 15.33 3.07 10.37 6.72 6.71 C 10.38 3.06 15.34 1 20.51 1 C 25.68 1 30.64 3.06 34.3 6.71 C 37.95 10.37 40.01 15.33 40.01 20.5 C 40.01 25.67 37.95 30.63 34.3 34.29 C 30.64 37.94 25.68 40 20.51 40 C 15.34 40 10.38 37.94 6.72 34.29 C 3.07 30.63 1.01 25.67 1.01 20.5 Z " fill-rule="evenodd" fill="rgb(37,20,61)"/></g><defs><filter id="iuPDVaq9W33P1L6d2ZZWfQmNUlqgDUsX" x="-200%" y="-200%" width="400%" height="400%" filterUnits="objectBoundingBox" color-interpolation-filters="sRGB"><feGaussianBlur xmlns="http://www.w3.org/2000/svg" in="SourceGraphic" stdDeviation="64.40413594258543"/><feOffset xmlns="http://www.w3.org/2000/svg" dx="0" dy="0" result="pf_100_offsetBlur"/><feFlood xmlns="http://www.w3.org/2000/svg" flood-color="#FF0000" flood-opacity="0.65"/><feComposite xmlns="http://www.w3.org/2000/svg" in2="pf_100_offsetBlur" operator="in" result="pf_100_dropShadow"/><feBlend xmlns="http://www.w3.org/2000/svg" in="SourceGraphic" in2="pf_100_dropShadow" mode="normal"/></filter></defs><g filter="url(#iuPDVaq9W33P1L6d2ZZWfQmNUlqgDUsX)"><linearGradient id="_lgradient_3" x1="-0.09462955338042023" y1="-0.010416666666666852" x2="1.000576454825938" y2="1.0042535819637588" gradientTransform="matrix(24.16,0,0,21,0.01,20)" gradientUnits="userSpaceOnUse"><stop offset="0%" stop-opacity="1" style="stop-color:rgb(233,99,253)"/><stop offset="41.66666666666667%" stop-opacity="1" style="stop-color:rgb(130,51,197)"/><stop offset="69.16666666666667%" stop-opacity="0.16" style="stop-color:rgb(130,51,197)"/><stop offset="98.26086956521739%" stop-opacity="0" style="stop-color:rgb(165,254,203)"/></linearGradient><path d=" M 23.52 39.77 L 23.52 39.77 C 23.796 39.726 24.054 39.912 24.095 40.185 L 24.095 40.185 C 24.136 40.458 23.95 40.716 23.68 40.76 L 23.68 40.76 C 22.63 40.92 21.57 41 20.51 41 C 15.08 41 9.86 38.84 6.02 34.99 C 2.17 31.15 0.01 25.93 0.01 20.5 L 0.01 20 L 1.01 20 L 1.01 20.5 C 1.01 25.67 3.07 30.63 6.72 34.29 C 10.38 37.94 15.34 40 20.51 40 C 21.52 40 22.53 39.92 23.52 39.77 Z " fill="url(#_lgradient_3)"/></g><path d=" M 1.01 20.14 L 1 20.64 L 0 20.62 L 0.01 20.12 C 0.02 19.48 0.07 18.84 0.14 18.2 L 0.14 18.2 C 0.168 17.924 0.414 17.725 0.69 17.755 L 0.69 17.755 C 0.966 17.785 1.163 18.034 1.13 18.31 L 1.13 18.31 C 1.06 18.92 1.02 19.53 1.01 20.14 Z " fill="rgb(255,255,255)"/></svg>