<?xml version="1.0" encoding="UTF-8" standalone="no"?><!-- Generator: Gravit.io --><svg xmlns="http://www.w3.org/2000/svg" xmlns:xlink="http://www.w3.org/1999/xlink" style="isolation:isolate" viewBox="0 0 512 512" width="512pt" height="512pt"><linearGradient id="_lgradient_0" x1="0" y1="0.5" x2="1" y2="0.5" gradientTransform="matrix(140.042,0,0,281,159.958,208)" gradientUnits="userSpaceOnUse"><stop offset="0%" stop-opacity="1" style="stop-color:rgb(39,75,116)"/><stop offset="50.416666666666664%" stop-opacity="1" style="stop-color:rgb(130,51,197)"/><stop offset="98.33333333333333%" stop-opacity="1" style="stop-color:rgb(233,99,253)"/></linearGradient><path d=" M 175.768 275.274 C 162.533 303.446 157.608 329.829 160.991 354.419 C 166.668 423.992 213.029 468.877 300 489 C 263.376 469.268 237.887 446.971 223.531 422.106 C 221.907 422.064 199.035 415.984 199 413 C 198.659 412.341 198.618 407.685 203 408 C 208.22 409.449 218.746 414.918 218.824 413 C 211.694 397.429 208.718 380.9 209.897 363.411 C 209.103 364.888 181.052 347.509 182 344 C 181.571 344.131 181.4 337.818 186 339 C 191.039 343.628 207.145 357.512 210.695 355.569 C 212.416 342.881 216.254 329.703 222.21 316.036 C 224.626 310.427 227.974 304.828 232.11 299.333 C 231.143 301.883 202.793 268.169 205 264 C 205.348 263.565 207.949 256.913 213 262 C 213.79 268.081 228.24 291.249 236.969 293.338 C 246.84 281.975 259.963 271.232 275 262 C 261.995 248.995 252.682 231.015 247 208 C 214.401 228.802 188.657 252.561 175.768 275.274 Z " fill="url(#_lgradient_0)"/><linearGradient id="_lgradient_1" x1="0" y1="0.5" x2="1" y2="0.5" gradientTransform="matrix(387.515,0,0,485.774,61.883,14.226)" gradientUnits="userSpaceOnUse"><stop offset="0%" stop-opacity="1" style="stop-color:rgb(135,154,242)"/><stop offset="47.91666666666667%" stop-opacity="1" style="stop-color:rgb(211,32,139)"/><stop offset="97.91666666666666%" stop-opacity="1" style="stop-color:rgb(253,160,0)"/></linearGradient><path d=" M 334.025 155.885 C 331.125 154.283 328.117 152.655 325 151 L 246.048 22.703 C 245.47 21.763 244.182 21.365 243.173 21.815 C 238.68 23.819 236.003 29.142 237 37 L 275 132 C 214.108 123.621 154.098 140.611 107 183 L 133 179 C 77.417 222.37 54.407 290.36 64 383 L 83 341 C 87.178 397.848 116.501 450.838 171 500 L 161 467 C 195.308 493.965 242.631 501.288 303 489 C 198.26 465.446 151.868 407.298 163.861 314.594 C 166.785 278.168 195.83 241.303 247 210 C 255.402 243.56 274.058 269.883 301.426 280.78 C 304.502 282.005 307.605 285.62 308.349 288.846 L 314.651 316.154 C 315.395 319.38 314.539 324.257 312.74 327.037 L 308.26 333.963 C 306.461 336.743 307.538 339.888 310.663 340.982 L 339.337 351.018 C 342.462 352.112 347.405 351.798 350.367 350.317 L 363.633 343.683 C 366.595 342.202 366.75 339.528 363.979 337.715 C 359.106 334.526 351.096 328.183 349.212 326.273 C 346.888 323.915 344.497 319.359 343.877 316.106 L 330.123 243.894 C 329.503 240.641 331.448 239.113 334.462 240.483 L 378.538 260.517 C 381.552 261.887 384 265.689 384 269 L 384 280 C 384 281.656 385.328 282.79 386.963 282.532 L 400.037 280.468 C 401.672 280.21 403 281.344 403 283 L 403 295 C 403 296.656 404.318 297.736 405.942 297.412 L 420.058 294.588 C 421.682 294.264 423 295.344 423 297 L 423 310 C 423 311.656 424.099 312.226 425.453 311.274 L 445.093 297.453 C 447.801 295.547 449.711 291.327 449.355 288.035 L 446.645 262.965 C 446.289 259.673 443.738 258.454 440.953 260.245 L 437.047 262.755 C 434.262 264.546 430.047 264.152 427.641 261.877 L 395 231 L 387 194 C 379.71 184.69 364.77 173.516 342.228 160.502 C 333.323 85.883 323.65 29.772 317.777 15.843 C 317.348 14.826 316.11 14.109 315.015 14.242 C 310.948 14.739 304.101 19.092 302.171 27 L 300 91 L 334.025 155.885 Z " fill-rule="evenodd" fill="url(#_lgradient_1)"/><linearGradient id="_lgradient_2" x1="0.4385416666666666" y1="0.9925925925925925" x2="0.43229166666666585" y2="0.020370370370370372" gradientTransform="matrix(42,0,0,40,325,176)" gradientUnits="userSpaceOnUse"><stop offset="0%" stop-opacity="1" style="stop-color:rgb(16,13,25)"/><stop offset="100%" stop-opacity="1" style="stop-color:rgb(23,17,40)"/></linearGradient><path d=" M 327.265 177.967 C 339.542 188.625 353.552 201.968 364.924 213.834 C 366.07 215.03 365.665 215.841 364.021 215.646 C 358.651 215.008 348.327 213.018 338.914 210.713 C 337.306 210.32 335.484 208.759 334.848 207.23 C 331.277 198.646 327.621 187.322 325.677 178.923 C 325.303 177.31 326.015 176.881 327.265 177.967 Z " fill="url(#_lgradient_2)"/></svg>